<?xml version="1.0" encoding="UTF-8" standalone="no"?>
<!-- Created with Inkscape (http://www.inkscape.org/) -->

<svg
   xmlns:dc="http://purl.org/dc/elements/1.1/"
   xmlns:cc="http://creativecommons.org/ns#"
   xmlns:rdf="http://www.w3.org/1999/02/22-rdf-syntax-ns#"
   xmlns:svg="http://www.w3.org/2000/svg"
   xmlns="http://www.w3.org/2000/svg"
   xmlns:sodipodi="http://sodipodi.sourceforge.net/DTD/sodipodi-0.dtd"
   xmlns:inkscape="http://www.inkscape.org/namespaces/inkscape"
   width="6.3500042mm"
   height="4.2333379mm"
   viewBox="0 0 6.3500042 4.2333379"
   version="1.1"
   id="svg8"
   inkscape:version="0.92.4 (unknown)"
   sodipodi:docname="binary_bg.svg">
  <defs
     id="defs2" />
  <sodipodi:namedview
     id="base"
     pagecolor="#ffffff"
     bordercolor="#666666"
     borderopacity="1.0"
     inkscape:pageopacity="0.0"
     inkscape:pageshadow="2"
     inkscape:zoom="11.2"
     inkscape:cx="2.0121108"
     inkscape:cy="4.5373573"
     inkscape:document-units="mm"
     inkscape:current-layer="layer1"
     showgrid="false"
     fit-margin-top="0"
     fit-margin-left="0"
     fit-margin-right="0"
     fit-margin-bottom="0"
     inkscape:window-width="1871"
     inkscape:window-height="1025"
     inkscape:window-x="49"
     inkscape:window-y="27"
     inkscape:window-maximized="1" />
  <metadata
     id="metadata5">
    <rdf:RDF>
      <cc:Work
         rdf:about="">
        <dc:format>image/svg+xml</dc:format>
        <dc:type
           rdf:resource="http://purl.org/dc/dcmitype/StillImage" />
        <dc:title></dc:title>
      </cc:Work>
    </rdf:RDF>
  </metadata>
  <g
     inkscape:label="Layer 1"
     inkscape:groupmode="layer"
     id="layer1"
     transform="translate(-40.424407,-141.69236)">
    <path
       inkscape:connector-curvature="0"
       style="fill:#000000;fill-opacity:1;stroke:none;stroke-width:0.02205675"
       d="m 40.953596,141.69236 v 0.52919 0.52915 0.52919 h 0.529145 v -0.52919 -0.52915 -0.52919 z m 1.587479,0 v 0.52919 h 0.529145 v -0.52919 z m 0.529145,0.52919 v 0.52915 h 0.529189 v -0.52915 z m 0,0.52915 h -0.529145 v 0.52919 h 0.529145 z m -0.529145,0 v -0.52915 H 42.01193 v 0.52915 z m 1.587479,-1.05834 v 0.52919 0.52915 0.52919 h 0.529189 v -0.52919 -0.52915 -0.52919 z m 1.587523,0 v 0.52919 h 0.529145 v -0.52919 z m 0.529145,0.52919 v 0.52915 h 0.529189 v -0.52915 z m 0,0.52915 h -0.529145 v 0.52919 h 0.529145 z m -0.529145,0 v -0.52915 h -0.529189 v 0.52915 z m -4.762481,1.05834 v 0.52915 h 0.529145 v -0.52915 z m 0.529145,0.52915 v 0.52919 h 0.529189 v -0.52919 z m 0,0.52919 h -0.529145 v 0.52915 h 0.529145 z m -0.529145,0 v -0.52919 h -0.529189 v 0.52919 z m 1.587479,-1.05834 v 0.52915 0.52919 0.52915 h 0.529145 v -0.52915 -0.52919 -0.52915 z m 1.587479,0 v 0.52915 h 0.529189 v -0.52915 z m 0.529189,0.52915 v 0.52919 h 0.529145 v -0.52919 z m 0,0.52919 h -0.529189 v 0.52915 h 0.529189 z m -0.529189,0 v -0.52919 h -0.529145 v 0.52919 z m 1.587523,-1.05834 v 0.52915 0.52919 0.52915 h 0.529145 v -0.52915 -0.52919 -0.52915 z"
       id="rect819" />
  </g>
</svg>
