<svg xmlns="http://www.w3.org/2000/svg" width="19" height="16" viewBox="0 0 19 16">
    <path fill="#FFF" fill-rule="evenodd" d="M17.057 3.844c.007.168.012.337.012.506 0 5.152-3.92 11.09-11.093 11.09-2.202 0-4.251-.643-5.976-1.75a7.824 7.824 0 0 0 5.772-1.614A3.902 3.902 0 0 1 2.13 9.368a3.93 3.93 0 0 0 1.76-.066A3.9 3.9 0 0 1 .763 5.48l.001-.05a3.882 3.882 0 0 0 1.765.488A3.896 3.896 0 0 1 .796 2.674c0-.715.191-1.385.527-1.961a11.07 11.07 0 0 0 8.035 4.074A3.898 3.898 0 0 1 16 1.23a7.782 7.782 0 0 0 2.476-.946 3.916 3.916 0 0 1-1.716 2.158A7.75 7.75 0 0 0 19 1.828a7.842 7.842 0 0 1-1.943 2.016z"/>
</svg>
